<?xml version="1.0" encoding="UTF-8"?>
<svg xmlns="http://www.w3.org/2000/svg" height="122.92" viewBox="0 0 573.67899 122.918" width="573.68" version="1.1" y="0px" x="0px" >
	<path d="m177.59,78.758c0-12.379-5.399-23.329-18.567-23.329s-18.566,10.95-18.566,23.329c0,12.219,5.398,23.168,18.566,23.168s18.567-10.949,18.567-23.168m-66.649,0c0-27.454,20.789-43.321,48.082-43.321s48.082,15.867,48.082,43.321c0,27.293-20.789,43.16-48.082,43.16s-48.082-15.867-48.082-43.16" fill="#0064dc"/>
	<path d="m277.84,78.758c0-12.379-5.395-23.329-18.563-23.329-13.172,0-18.566,10.95-18.566,23.329,0,12.219,5.394,23.168,18.566,23.168,13.168,0,18.563-10.949,18.563-23.168m-66.645,0c0-27.454,20.789-43.321,48.082-43.321s48.078,15.867,48.078,43.321c0,27.293-20.785,43.16-48.078,43.16s-48.082-15.867-48.082-43.16" fill="#0064dc"/>
	<path d="m30.515,31.152h11.422c21.582,0,34.438,11.422,34.438,33.48s-12.856,33.48-34.438,33.48h-11.422v-66.96zm76.325,33.004c0-42.844-26.977-54.902-65.543-54.902h-40.297v110.76h40.297c38.566,0,65.543-12.059,65.543-54.906,0-0.164-0.008-0.316-0.008-0.477s0.008-0.312,0.008-0.476" fill="#0064dc"/>
	<rect height="119.02" width="28.563" y="1" x="417.99" fill="#0064dc"/>
	<path d="m359.54,101.93c-13.168,0-18.566-10.949-18.566-23.168,0-12.379,5.398-23.329,18.566-23.329s18.563,10.95,18.563,23.329c-0.001,12.219-5.395,23.168-18.563,23.168m19.52-100.93v37.519c-5.918-2.027-12.5-3.082-19.52-3.082-27.293,0-48.082,15.867-48.082,43.321,0,27.293,20.789,43.16,48.082,43.16,7.02,0,14.465-2.969,19.52-6.152v4.25h28.563v-119.02h-28.563z" fill="#0064dc"/>
	<path d="m553.57,16.812h1.355c1.75,0,2.914-0.781,2.914-1.843,0-1.262-1.074-1.946-2.715-1.946-0.582,0-1.172,0.106-1.555,0.106v3.683zm-0.195,8.828h-4.754v-15.421c1.074-0.204,3.59-0.586,6.793-0.586,3.496,0,5.047,0.488,6.207,1.261,0.969,0.676,1.652,1.84,1.652,3.399,0,1.547-1.461,2.91-3.59,3.488v0.195c1.742,0.481,2.711,1.75,3.203,3.973,0.477,2.234,0.777,3.105,1.066,3.691h-5.336c-0.488-0.586-0.777-1.941-1.07-3.3-0.289-1.551-1.063-2.329-2.621-2.329h-1.551v5.629zm1.945-20.467c-6.793,0-11.938,5.531-11.938,12.609,0,6.887,5.145,12.516,12.125,12.516,6.992,0.093,12.129-5.629,12.129-12.614,0-6.98-5.137-12.511-12.223-12.511h-0.093zm0.28-4.173c9.516,0,17.078,7.469,17.078,16.683,0,9.317-7.563,16.782-17.176,16.782-9.602,0-17.262-7.465-17.262-16.782,0-9.214,7.66-16.683,17.262-16.683h0.098z" fill="#0064dc"/>
	<path d="m486.19,70.809c1.965-8.754,7.484-15.379,17.719-15.379,10.23,0,15.758,6.625,17.719,15.379h-35.438zm30.195-33.465c-4.211-1.227-8.961-1.907-14.32-1.907-0.203,0-0.406,0.012-0.613,0.012-0.219,0-0.434-0.012-0.656-0.012-27.289,0-48.078,15.867-48.078,43.321,0,27.293,20.789,43.16,48.078,43.16,0.859,0,1.707-0.012,2.547-0.043,0.84,0.031,1.688,0.043,2.535,0.043,10.633,0,21.109-1.582,30.313-5.234v-20.158c-8.57,4.602-17.457,6.348-25.234,6.348-3.656,0-6.941-0.316-9.84-0.969-8.191-1.848-13.27-6.469-14.441-14.902h61.516c0.199-1.172,0.363-2.359,0.48-3.578,0.137-1.516,0.211-3.074,0.211-4.672-0.002-21.922-13.26-36.447-32.498-41.415" fill="#0064dc"/>
</svg>