<svg width="139" height="123" viewBox="0 0 139 123" xmlns="http://www.w3.org/2000/svg"><title>brandmark</title><defs><linearGradient x1="50%" y1="0%" x2="50%" y2="100%" id="a"><stop stop-color="#64C957" offset="0%"/><stop stop-color="#369729" offset="100%"/></linearGradient></defs><g transform="translate(70.476292, 60.787719) rotate(-5.000000) translate(-70.476292, -60.787719) translate(3.976292, 0.787719)" fill="none" fill-rule="evenodd"><path d="M108.063 91.932s26.369-1.452 24.02-27.965c-1.623-18.3-12.4-25.33-20.653-25.33-7.924 0-14.558 6.45-14.558 6.45s-6.266-4.792-10.688-5.898c0 0 .055-7.544-2.038-16.102C80.24 7.124 71.842 3.317 64.916 2.401c-8.17-1.08-13.56 2.697-13.56 2.697-9.228-7.449-29.345-6.609-40.19 5.177C1.6 20.669-3.119 37.495 2.576 61.265c6.942 28.968 34.335 49.728 52.49 55.613 19.077 6.185 38.476 3.048 43.703-17.512 0 0 7.725.58 9.293-7.434z" fill="#18491C"/><path d="M80.251 23.125C77.061 11.41 69.967 6.02 63.301 5.835 54.737 5.6 51.249 9.957 51.249 9.957c-7.632-7.253-25.917-8.233-36.281 2.376C5.47 22.052.495 39.19 7.212 61.944c7.783 26.363 33.814 46.01 51.72 51.907 24.796 8.167 40.13-9.664 34.728-24.474 13.707 1.162 37.113-4.124 34.547-26.284-1.802-15.56-11.802-20.586-18.036-20.186-6.285.403-12.917 7.43-12.917 7.43s-9.663-8.996-17.138-7.31c-7.475 1.686-12.078 8.44-14.665 13.619-1.165 2.332-3.406 2.039-2.68-.439 2.514-8.57 10.283-17.985 19.314-17.471 0 0 .931-5.455-1.834-15.611z" fill="url(#a)" transform="translate(0.000000, 0.000000) translate(-0.000000, 0.000000)"/><path d="M84.611 56.187c-3.248-.012-5.89 2.445-5.9 5.489-.012 3.044 2.612 5.52 5.86 5.533 3.247.012 5.889-2.446 5.9-5.49.011-3.043-2.612-5.52-5.86-5.532z" fill="#17491C"/><path d="M113.74 56.879c-2.953-.011-5.355 2.224-5.365 4.993-.01 2.768 2.375 5.021 5.328 5.032 2.954.01 5.356-2.225 5.366-4.993.01-2.768-2.375-5.021-5.329-5.032zM89.826 89.086s-12.894-.871-26.833-8.538C46.91 71.702 48.356 64.877 42.955 66.086c-5.402 1.21-7.511 11.497-2.265 23.349 4.704 10.628 23.213 22.745 35.545 18.992 16.03-4.879 13.591-19.341 13.591-19.341z" fill="#18491C"/><path d="M25.998 40.76c1.006-2.264 7.385-18.462 12.597-18.896 5.213-.434 9.774 14.118 10.86 16.941 1.086 2.824-1.303 3.693-2.606 1.52-1.274-2.123-5.864-12.597-7.819-12.597-1.954 0-9.34 12.597-10.425 14.335-.983 1.573-3.475.65-2.607-1.303zM55.434 37.625c.8-2.166 5.88-17.664 10.031-18.08 4.151-.415 7.783 13.507 8.647 16.21.865 2.701-1.037 3.533-2.075 1.454-1.015-2.032-4.67-12.053-6.226-12.053-1.557 0-7.437 12.053-8.302 13.716-.783 1.505-2.768.623-2.075-1.247z" fill="#182A19"/><path d="M74.084 85.312c-.824 3.04.37 8.424 5.123 9.56 4.517 1.08 9.107-3.339 9.361-6.062-3.543-.568-9.217-1.746-14.484-3.498zM50.429 70.667c-2.029 1.64-1.769 6.713.782 8.726 2.624 2.073 6.58 1.49 8.358-.83-4.823-3.76-6.587-5.557-9.14-7.896z" fill="#FFF"/><path d="M59.514 78.461c-.83 2.397-.98 8.644 3.544 10.531 4.48 1.869 9.899-1.179 10.65-3.897 0 0-8.22-2.821-14.194-6.634zM104.285 88.95c.056 2.505-2.27 6.8-7.849 6.843-5.297.041-7.441-3.555-7.352-6.88 0 0 5.216.96 15.2.036z" fill="#FFF"/><path d="M88.643 41.819a20.385 20.385 0 0 0 2.038-13.227C88.657 17.469 78 10.092 66.876 12.117 55.753 14.14 48.377 24.799 50.401 35.922c1.488 8.177 7.642 14.328 15.216 16.21 0 0 3.4-7.076 10.402-9.89 7.001-2.815 12.624-.423 12.624-.423z" fill="#18491C"/><path d="M66.288 48.674c2.573-4.057 6.398-8.137 11.324-9.253 3.096-.702 6.036-.53 8.505-.04a16.917 16.917 0 0 0 1.296-10.173c-1.68-9.237-10.532-15.362-19.769-13.68-9.236 1.68-15.361 10.531-13.68 19.768 1.214 6.678 6.178 11.726 12.324 13.378z" fill="#FFF"/><ellipse fill="#18491C" cx="36.038" cy="34.62" rx="25.32" ry="25.32"/><ellipse fill="#FFF" cx="36.038" cy="34.62" rx="21.718" ry="21.718"/><ellipse fill="#18491C" cx="37.019" cy="34.927" rx="6.867" ry="6.867"/><circle fill="#18491C" cx="72.801" cy="32.289" r="5.39"/></g></svg>